<svg id="svg" version="1.1" width="400" height="444.44444444444446" viewBox="0 0 400 444.44444444444446" xmlns="http://www.w3.org/2000/svg" xmlns:xlink="http://www.w3.org/1999/xlink" ><g id="svgg"><path id="path0" d="M0.000 222.200 L 0.000 444.400 200.000 444.400 L 400.000 444.400 400.000 222.200 L 400.000 0.000 200.000 0.000 L 0.000 0.000 0.000 222.200 M227.600 60.400 C 227.600 61.157,227.867 61.200,232.600 61.200 C 236.778 61.200,237.600 61.299,237.600 61.800 C 237.600 62.253,238.089 62.400,239.600 62.400 C 241.333 62.400,241.600 62.507,241.600 63.200 C 241.600 63.733,241.867 64.000,242.400 64.000 C 242.844 64.000,243.200 64.267,243.200 64.600 C 243.200 65.019,243.622 65.200,244.600 65.200 C 245.733 65.200,246.000 65.352,246.000 66.000 C 246.000 66.444,246.267 66.800,246.600 66.800 C 247.019 66.800,247.200 67.222,247.200 68.200 C 247.200 69.333,247.352 69.600,248.000 69.600 C 248.444 69.600,248.800 69.867,248.800 70.200 C 248.800 70.530,249.070 70.800,249.400 70.800 C 249.853 70.800,250.000 71.289,250.000 72.800 C 250.000 74.533,250.107 74.800,250.800 74.800 C 251.557 74.800,251.600 75.067,251.600 79.800 C 251.600 83.978,251.699 84.800,252.200 84.800 C 252.714 84.800,252.800 85.978,252.800 93.000 C 252.800 100.022,252.886 101.200,253.400 101.200 C 253.733 101.200,254.000 101.556,254.000 102.000 C 254.000 102.533,254.267 102.800,254.800 102.800 C 255.244 102.800,255.600 103.067,255.600 103.400 C 255.600 103.927,258.644 104.000,280.600 104.000 C 305.333 104.000,305.600 104.009,305.600 104.800 C 305.600 105.493,305.867 105.600,307.600 105.600 C 309.111 105.600,309.600 105.747,309.600 106.200 C 309.600 106.619,310.022 106.800,311.000 106.800 C 312.133 106.800,312.400 106.952,312.400 107.600 C 312.400 108.133,312.667 108.400,313.200 108.400 C 313.644 108.400,314.000 108.667,314.000 109.000 C 314.000 109.330,314.270 109.600,314.600 109.600 C 314.933 109.600,315.200 109.956,315.200 110.400 C 315.200 110.933,315.467 111.200,316.000 111.200 C 316.648 111.200,316.800 111.467,316.800 112.600 C 316.800 113.578,316.981 114.000,317.400 114.000 C 317.853 114.000,318.000 114.489,318.000 116.000 C 318.000 117.733,318.107 118.000,318.800 118.000 C 319.556 118.000,319.600 118.267,319.600 122.800 C 319.600 127.333,319.556 127.600,318.800 127.600 C 318.097 127.600,318.000 127.867,318.000 129.800 C 318.000 131.489,317.861 132.000,317.400 132.000 C 316.981 132.000,316.800 132.422,316.800 133.400 C 316.800 134.533,316.648 134.800,316.000 134.800 C 315.556 134.800,315.200 135.067,315.200 135.400 C 315.200 135.730,314.930 136.000,314.600 136.000 C 314.267 136.000,314.000 136.356,314.000 136.800 C 314.000 137.333,313.733 137.600,313.200 137.600 C 312.756 137.600,312.400 137.867,312.400 138.200 C 312.400 138.619,311.978 138.800,311.000 138.800 C 309.867 138.800,309.600 138.952,309.600 139.600 C 309.600 140.293,309.333 140.400,307.600 140.400 C 306.089 140.400,305.600 140.547,305.600 141.000 C 305.600 141.532,292.444 141.600,189.600 141.600 C 86.756 141.600,73.600 141.532,73.600 141.000 C 73.600 140.547,73.111 140.400,71.600 140.400 C 69.867 140.400,69.600 140.293,69.600 139.600 C 69.600 138.952,69.333 138.800,68.200 138.800 C 67.222 138.800,66.800 138.619,66.800 138.200 C 66.800 137.867,66.444 137.600,66.000 137.600 C 65.467 137.600,65.200 137.333,65.200 136.800 C 65.200 136.356,64.933 136.000,64.600 136.000 C 64.270 136.000,64.000 135.730,64.000 135.400 C 64.000 135.067,63.644 134.800,63.200 134.800 C 62.552 134.800,62.400 134.533,62.400 133.400 C 62.400 132.422,62.219 132.000,61.800 132.000 C 61.324 132.000,61.200 131.422,61.200 129.200 C 61.200 126.667,61.124 126.400,60.400 126.400 C 59.663 126.400,59.600 126.133,59.600 123.000 C 59.600 119.867,59.663 119.600,60.400 119.600 C 61.124 119.600,61.200 119.333,61.200 116.800 C 61.200 114.578,61.324 114.000,61.800 114.000 C 62.219 114.000,62.400 113.578,62.400 112.600 C 62.400 111.467,62.552 111.200,63.200 111.200 C 63.733 111.200,64.000 110.933,64.000 110.400 C 64.000 109.956,64.267 109.600,64.600 109.600 C 64.930 109.600,65.200 109.330,65.200 109.000 C 65.200 108.667,65.556 108.400,66.000 108.400 C 66.533 108.400,66.800 108.133,66.800 107.600 C 66.800 106.952,67.067 106.800,68.200 106.800 C 69.178 106.800,69.600 106.619,69.600 106.200 C 69.600 105.747,70.089 105.600,71.600 105.600 C 73.333 105.600,73.600 105.493,73.600 104.800 C 73.600 104.009,73.867 104.000,98.600 104.000 C 120.556 104.000,123.600 103.927,123.600 103.400 C 123.600 103.067,123.956 102.800,124.400 102.800 C 124.933 102.800,125.200 102.533,125.200 102.000 C 125.200 101.556,125.467 101.200,125.800 101.200 C 126.308 101.200,126.400 100.244,126.400 95.000 C 126.400 89.756,126.492 88.800,127.000 88.800 C 127.508 88.800,127.600 87.844,127.600 82.600 C 127.600 76.667,127.634 76.400,128.400 76.400 C 129.093 76.400,129.200 76.133,129.200 74.400 C 129.200 72.889,129.347 72.400,129.800 72.400 C 130.219 72.400,130.400 71.978,130.400 71.000 C 130.400 69.867,130.552 69.600,131.200 69.600 C 131.733 69.600,132.000 69.333,132.000 68.800 C 132.000 68.356,132.267 68.000,132.600 68.000 C 132.930 68.000,133.200 67.730,133.200 67.400 C 133.200 67.067,133.556 66.800,134.000 66.800 C 134.533 66.800,134.800 66.533,134.800 66.000 C 134.800 65.556,135.067 65.200,135.400 65.200 C 135.730 65.200,136.000 64.930,136.000 64.600 C 136.000 64.181,136.422 64.000,137.400 64.000 C 138.533 64.000,138.800 63.848,138.800 63.200 C 138.800 62.497,139.067 62.400,141.000 62.400 C 142.689 62.400,143.200 62.261,143.200 61.800 C 143.200 61.296,144.067 61.200,148.600 61.200 C 153.733 61.200,154.000 61.160,154.000 60.400 C 154.000 59.606,154.267 59.600,190.800 59.600 C 227.333 59.600,227.600 59.606,227.600 60.400 M166.800 98.000 C 166.800 98.533,166.533 98.800,166.000 98.800 C 165.556 98.800,165.200 99.067,165.200 99.400 C 165.200 99.730,164.930 100.000,164.600 100.000 C 164.270 100.000,164.000 100.270,164.000 100.600 C 164.000 100.930,164.270 101.200,164.600 101.200 C 164.933 101.200,165.200 101.556,165.200 102.000 C 165.200 102.533,165.467 102.800,166.000 102.800 C 166.444 102.800,166.800 103.067,166.800 103.400 C 166.800 103.926,169.600 104.000,189.600 104.000 C 209.600 104.000,212.400 103.926,212.400 103.400 C 212.400 103.067,212.756 102.800,213.200 102.800 C 213.733 102.800,214.000 102.533,214.000 102.000 C 214.000 101.556,214.267 101.200,214.600 101.200 C 214.930 101.200,215.200 100.930,215.200 100.600 C 215.200 100.270,214.930 100.000,214.600 100.000 C 214.270 100.000,214.000 99.730,214.000 99.400 C 214.000 99.067,213.644 98.800,213.200 98.800 C 212.667 98.800,212.400 98.533,212.400 98.000 C 212.400 97.209,212.133 97.200,189.600 97.200 C 167.067 97.200,166.800 97.209,166.800 98.000 M283.200 149.200 C 283.200 149.903,283.467 150.000,285.400 150.000 C 287.089 150.000,287.600 150.139,287.600 150.600 C 287.600 151.019,288.022 151.200,289.000 151.200 C 290.133 151.200,290.400 151.352,290.400 152.000 C 290.400 152.444,290.667 152.800,291.000 152.800 C 291.330 152.800,291.600 153.070,291.600 153.400 C 291.600 153.733,291.956 154.000,292.400 154.000 C 292.933 154.000,293.200 154.267,293.200 154.800 C 293.200 155.244,293.467 155.600,293.800 155.600 C 294.219 155.600,294.400 156.022,294.400 157.000 C 294.400 158.133,294.552 158.400,295.200 158.400 C 295.893 158.400,296.000 158.667,296.000 160.400 C 296.000 161.911,296.147 162.400,296.600 162.400 C 297.132 162.400,297.200 172.467,297.200 250.600 C 297.200 328.733,297.132 338.800,296.600 338.800 C 296.100 338.800,296.000 339.600,296.000 343.600 C 296.000 348.133,295.956 348.400,295.200 348.400 C 294.497 348.400,294.400 348.667,294.400 350.600 C 294.400 352.289,294.261 352.800,293.800 352.800 C 293.470 352.800,293.200 353.070,293.200 353.400 C 293.200 353.733,292.844 354.000,292.400 354.000 C 291.752 354.000,291.600 354.267,291.600 355.400 C 291.600 356.378,291.419 356.800,291.000 356.800 C 290.667 356.800,290.400 357.156,290.400 357.600 C 290.400 358.248,290.133 358.400,289.000 358.400 C 288.022 358.400,287.600 358.581,287.600 359.000 C 287.600 359.333,287.244 359.600,286.800 359.600 C 286.267 359.600,286.000 359.867,286.000 360.400 C 286.000 361.093,285.733 361.200,284.000 361.200 C 282.489 361.200,282.000 361.347,282.000 361.800 C 282.000 362.300,281.200 362.400,277.200 362.400 C 272.667 362.400,272.400 362.444,272.400 363.200 C 272.400 363.997,272.133 364.000,191.000 364.000 C 109.867 364.000,109.600 363.997,109.600 363.200 C 109.600 362.440,109.333 362.400,104.200 362.400 C 99.667 362.400,98.800 362.304,98.800 361.800 C 98.800 361.339,98.289 361.200,96.600 361.200 C 94.667 361.200,94.400 361.103,94.400 360.400 C 94.400 359.752,94.133 359.600,93.000 359.600 C 92.022 359.600,91.600 359.419,91.600 359.000 C 91.600 358.670,91.330 358.400,91.000 358.400 C 90.667 358.400,90.400 358.044,90.400 357.600 C 90.400 357.067,90.133 356.800,89.600 356.800 C 89.156 356.800,88.800 356.533,88.800 356.200 C 88.800 355.870,88.530 355.600,88.200 355.600 C 87.867 355.600,87.600 355.244,87.600 354.800 C 87.600 354.267,87.333 354.000,86.800 354.000 C 86.152 354.000,86.000 353.733,86.000 352.600 C 86.000 351.622,85.819 351.200,85.400 351.200 C 84.947 351.200,84.800 350.711,84.800 349.200 C 84.800 347.467,84.693 347.200,84.000 347.200 C 83.234 347.200,83.200 346.933,83.200 341.000 C 83.200 335.756,83.108 334.800,82.600 334.800 C 82.069 334.800,82.000 325.044,82.000 249.400 C 82.000 173.756,82.069 164.000,82.600 164.000 C 83.076 164.000,83.200 163.422,83.200 161.200 C 83.200 158.667,83.276 158.400,84.000 158.400 C 84.648 158.400,84.800 158.133,84.800 157.000 C 84.800 156.022,84.981 155.600,85.400 155.600 C 85.733 155.600,86.000 155.244,86.000 154.800 C 86.000 154.267,86.267 154.000,86.800 154.000 C 87.244 154.000,87.600 153.733,87.600 153.400 C 87.600 153.070,87.870 152.800,88.200 152.800 C 88.533 152.800,88.800 152.444,88.800 152.000 C 88.800 151.352,89.067 151.200,90.200 151.200 C 91.178 151.200,91.600 151.019,91.600 150.600 C 91.600 150.139,92.111 150.000,93.800 150.000 C 95.733 150.000,96.000 149.903,96.000 149.200 C 96.000 148.402,96.267 148.400,189.600 148.400 C 282.933 148.400,283.200 148.402,283.200 149.200 M122.400 186.800 C 122.400 187.333,122.133 187.600,121.600 187.600 C 121.156 187.600,120.800 187.867,120.800 188.200 C 120.800 188.530,120.530 188.800,120.200 188.800 C 119.669 188.800,119.600 196.556,119.600 256.200 C 119.600 315.844,119.669 323.600,120.200 323.600 C 120.530 323.600,120.800 323.870,120.800 324.200 C 120.800 324.533,121.156 324.800,121.600 324.800 C 122.133 324.800,122.400 325.067,122.400 325.600 C 122.400 326.044,122.667 326.400,123.000 326.400 C 123.333 326.400,123.600 326.044,123.600 325.600 C 123.600 325.067,123.867 324.800,124.400 324.800 C 124.844 324.800,125.200 324.533,125.200 324.200 C 125.200 323.870,125.470 323.600,125.800 323.600 C 126.331 323.600,126.400 315.844,126.400 256.200 C 126.400 196.556,126.331 188.800,125.800 188.800 C 125.470 188.800,125.200 188.530,125.200 188.200 C 125.200 187.867,124.844 187.600,124.400 187.600 C 123.867 187.600,123.600 187.333,123.600 186.800 C 123.600 186.356,123.333 186.000,123.000 186.000 C 122.667 186.000,122.400 186.356,122.400 186.800 M166.800 186.800 C 166.800 187.333,166.533 187.600,166.000 187.600 C 165.556 187.600,165.200 187.867,165.200 188.200 C 165.200 188.530,164.930 188.800,164.600 188.800 C 164.069 188.800,164.000 196.556,164.000 256.200 C 164.000 315.844,164.069 323.600,164.600 323.600 C 164.930 323.600,165.200 323.870,165.200 324.200 C 165.200 324.533,165.556 324.800,166.000 324.800 C 166.533 324.800,166.800 325.067,166.800 325.600 C 166.800 326.044,167.067 326.400,167.400 326.400 C 167.733 326.400,168.000 326.044,168.000 325.600 C 168.000 325.067,168.267 324.800,168.800 324.800 C 169.244 324.800,169.600 324.533,169.600 324.200 C 169.600 323.870,169.870 323.600,170.200 323.600 C 170.731 323.600,170.800 315.844,170.800 256.200 C 170.800 196.556,170.731 188.800,170.200 188.800 C 169.870 188.800,169.600 188.530,169.600 188.200 C 169.600 187.867,169.244 187.600,168.800 187.600 C 168.267 187.600,168.000 187.333,168.000 186.800 C 168.000 186.356,167.733 186.000,167.400 186.000 C 167.067 186.000,166.800 186.356,166.800 186.800 M211.200 186.800 C 211.200 187.333,210.933 187.600,210.400 187.600 C 209.956 187.600,209.600 187.867,209.600 188.200 C 209.600 188.530,209.330 188.800,209.000 188.800 C 208.469 188.800,208.400 196.556,208.400 256.200 C 208.400 315.844,208.469 323.600,209.000 323.600 C 209.330 323.600,209.600 323.870,209.600 324.200 C 209.600 324.533,209.956 324.800,210.400 324.800 C 210.933 324.800,211.200 325.067,211.200 325.600 C 211.200 326.044,211.467 326.400,211.800 326.400 C 212.133 326.400,212.400 326.044,212.400 325.600 C 212.400 325.067,212.667 324.800,213.200 324.800 C 213.644 324.800,214.000 324.533,214.000 324.200 C 214.000 323.870,214.270 323.600,214.600 323.600 C 215.131 323.600,215.200 315.844,215.200 256.200 C 215.200 196.556,215.131 188.800,214.600 188.800 C 214.270 188.800,214.000 188.530,214.000 188.200 C 214.000 187.867,213.644 187.600,213.200 187.600 C 212.667 187.600,212.400 187.333,212.400 186.800 C 212.400 186.356,212.133 186.000,211.800 186.000 C 211.467 186.000,211.200 186.356,211.200 186.800 M255.600 186.800 C 255.600 187.333,255.333 187.600,254.800 187.600 C 254.356 187.600,254.000 187.867,254.000 188.200 C 254.000 188.530,253.730 188.800,253.400 188.800 C 252.869 188.800,252.800 196.556,252.800 256.200 C 252.800 315.844,252.869 323.600,253.400 323.600 C 253.730 323.600,254.000 323.870,254.000 324.200 C 254.000 324.533,254.356 324.800,254.800 324.800 C 255.333 324.800,255.600 325.067,255.600 325.600 C 255.600 326.044,255.867 326.400,256.200 326.400 C 256.533 326.400,256.800 326.044,256.800 325.600 C 256.800 325.067,257.067 324.800,257.600 324.800 C 258.044 324.800,258.400 324.533,258.400 324.200 C 258.400 323.870,258.670 323.600,259.000 323.600 C 259.531 323.600,259.600 315.844,259.600 256.200 C 259.600 196.556,259.531 188.800,259.000 188.800 C 258.670 188.800,258.400 188.530,258.400 188.200 C 258.400 187.867,258.044 187.600,257.600 187.600 C 257.067 187.600,256.800 187.333,256.800 186.800 C 256.800 186.356,256.533 186.000,256.200 186.000 C 255.867 186.000,255.600 186.356,255.600 186.800 " stroke="none" fill="#fcfcfc" fill-rule="evenodd"></path><path id="path1" d="M158.400 67.400 C 158.400 67.910,157.356 68.000,151.400 68.000 C 144.667 68.000,144.400 68.030,144.400 68.800 C 144.400 69.244,144.133 69.600,143.800 69.600 C 143.470 69.600,143.200 69.870,143.200 70.200 C 143.200 70.619,142.778 70.800,141.800 70.800 C 140.667 70.800,140.400 70.952,140.400 71.600 C 140.400 72.133,140.133 72.400,139.600 72.400 C 139.156 72.400,138.800 72.667,138.800 73.000 C 138.800 73.330,138.530 73.600,138.200 73.600 C 137.870 73.600,137.600 73.870,137.600 74.200 C 137.600 74.533,137.244 74.800,136.800 74.800 C 136.152 74.800,136.000 75.067,136.000 76.200 C 136.000 77.178,135.819 77.600,135.400 77.600 C 134.882 77.600,134.800 79.044,134.800 88.200 C 134.800 97.356,134.882 98.800,135.400 98.800 C 135.800 98.800,136.000 99.200,136.000 100.000 C 136.000 100.800,135.800 101.200,135.400 101.200 C 135.067 101.200,134.800 101.556,134.800 102.000 C 134.800 102.533,134.533 102.800,134.000 102.800 C 133.556 102.800,133.200 103.067,133.200 103.400 C 133.200 103.819,132.778 104.000,131.800 104.000 C 130.667 104.000,130.400 104.152,130.400 104.800 C 130.400 105.244,130.133 105.600,129.800 105.600 C 129.470 105.600,129.200 105.870,129.200 106.200 C 129.200 106.619,128.778 106.800,127.800 106.800 C 126.667 106.800,126.400 106.952,126.400 107.600 C 126.400 108.248,126.133 108.400,125.000 108.400 C 124.022 108.400,123.600 108.581,123.600 109.000 C 123.600 109.508,122.644 109.600,117.400 109.600 C 111.467 109.600,111.200 109.634,111.200 110.400 C 111.200 111.188,110.933 111.200,93.800 111.200 C 78.600 111.200,76.400 111.276,76.400 111.800 C 76.400 112.219,75.978 112.400,75.000 112.400 C 73.867 112.400,73.600 112.552,73.600 113.200 C 73.600 113.644,73.333 114.000,73.000 114.000 C 72.670 114.000,72.400 114.270,72.400 114.600 C 72.400 114.933,72.044 115.200,71.600 115.200 C 71.067 115.200,70.800 115.467,70.800 116.000 C 70.800 116.444,70.533 116.800,70.200 116.800 C 69.870 116.800,69.600 117.070,69.600 117.400 C 69.600 117.733,69.244 118.000,68.800 118.000 C 68.267 118.000,68.000 118.267,68.000 118.800 C 68.000 119.244,67.733 119.600,67.400 119.600 C 67.070 119.600,66.800 119.870,66.800 120.200 C 66.800 120.533,66.444 120.800,66.000 120.800 C 65.307 120.800,65.200 121.067,65.200 122.800 C 65.200 124.533,65.307 124.800,66.000 124.800 C 66.533 124.800,66.800 125.067,66.800 125.600 C 66.800 126.044,67.067 126.400,67.400 126.400 C 67.730 126.400,68.000 126.670,68.000 127.000 C 68.000 127.333,68.356 127.600,68.800 127.600 C 69.333 127.600,69.600 127.867,69.600 128.400 C 69.600 128.844,69.867 129.200,70.200 129.200 C 70.530 129.200,70.800 129.470,70.800 129.800 C 70.800 130.133,71.156 130.400,71.600 130.400 C 72.133 130.400,72.400 130.667,72.400 131.200 C 72.400 131.644,72.667 132.000,73.000 132.000 C 73.330 132.000,73.600 132.270,73.600 132.600 C 73.600 133.019,74.022 133.200,75.000 133.200 C 76.133 133.200,76.400 133.352,76.400 134.000 C 76.400 134.798,76.667 134.800,179.800 134.800 C 282.933 134.800,283.200 134.798,283.200 134.000 C 283.200 133.243,283.467 133.200,288.200 133.200 C 292.378 133.200,293.200 133.101,293.200 132.600 C 293.200 132.114,293.844 132.000,296.600 132.000 C 299.733 132.000,300.000 131.937,300.000 131.200 C 300.000 130.552,300.267 130.400,301.400 130.400 C 302.378 130.400,302.800 130.219,302.800 129.800 C 302.800 129.470,303.070 129.200,303.400 129.200 C 303.733 129.200,304.000 128.844,304.000 128.400 C 304.000 127.867,304.267 127.600,304.800 127.600 C 305.244 127.600,305.600 127.333,305.600 127.000 C 305.600 126.670,305.870 126.400,306.200 126.400 C 306.533 126.400,306.800 126.044,306.800 125.600 C 306.800 125.067,307.067 124.800,307.600 124.800 C 308.293 124.800,308.400 124.533,308.400 122.800 C 308.400 121.067,308.293 120.800,307.600 120.800 C 307.156 120.800,306.800 120.533,306.800 120.200 C 306.800 119.870,306.530 119.600,306.200 119.600 C 305.867 119.600,305.600 119.244,305.600 118.800 C 305.600 118.267,305.333 118.000,304.800 118.000 C 304.356 118.000,304.000 117.733,304.000 117.400 C 304.000 117.070,303.730 116.800,303.400 116.800 C 303.067 116.800,302.800 116.444,302.800 116.000 C 302.800 115.352,302.533 115.200,301.400 115.200 C 300.422 115.200,300.000 115.019,300.000 114.600 C 300.000 114.114,299.356 114.000,296.600 114.000 C 293.467 114.000,293.200 113.937,293.200 113.200 C 293.200 112.443,292.933 112.400,288.200 112.400 C 284.022 112.400,283.200 112.301,283.200 111.800 C 283.200 111.278,281.311 111.200,268.600 111.200 C 254.267 111.200,254.000 111.185,254.000 110.400 C 254.000 109.778,253.733 109.600,252.800 109.600 C 252.000 109.600,251.600 109.400,251.600 109.000 C 251.600 108.667,251.244 108.400,250.800 108.400 C 250.267 108.400,250.000 108.133,250.000 107.600 C 250.000 106.952,249.733 106.800,248.600 106.800 C 247.622 106.800,247.200 106.619,247.200 106.200 C 247.200 105.870,246.930 105.600,246.600 105.600 C 246.267 105.600,246.000 105.244,246.000 104.800 C 246.000 104.267,245.733 104.000,245.200 104.000 C 244.756 104.000,244.400 103.733,244.400 103.400 C 244.400 103.070,244.130 102.800,243.800 102.800 C 243.467 102.800,243.200 102.444,243.200 102.000 C 243.200 101.467,242.933 101.200,242.400 101.200 C 241.682 101.200,241.600 100.933,241.600 98.600 C 241.600 96.556,241.472 96.000,241.000 96.000 C 240.524 96.000,240.400 95.422,240.400 93.200 C 240.400 90.667,240.324 90.400,239.600 90.400 C 238.876 90.400,238.800 90.133,238.800 87.600 C 238.800 85.378,238.676 84.800,238.200 84.800 C 237.739 84.800,237.600 84.289,237.600 82.600 C 237.600 80.667,237.503 80.400,236.800 80.400 C 236.152 80.400,236.000 80.133,236.000 79.000 C 236.000 78.022,235.819 77.600,235.400 77.600 C 235.070 77.600,234.800 77.330,234.800 77.000 C 234.800 76.667,234.444 76.400,234.000 76.400 C 233.467 76.400,233.200 76.133,233.200 75.600 C 233.200 74.952,232.933 74.800,231.800 74.800 C 230.822 74.800,230.400 74.619,230.400 74.200 C 230.400 73.870,230.130 73.600,229.800 73.600 C 229.470 73.600,229.200 73.330,229.200 73.000 C 229.200 72.581,228.778 72.400,227.800 72.400 C 226.667 72.400,226.400 72.248,226.400 71.600 C 226.400 70.952,226.133 70.800,225.000 70.800 C 224.022 70.800,223.600 70.619,223.600 70.200 C 223.600 69.747,223.111 69.600,221.600 69.600 C 219.867 69.600,219.600 69.493,219.600 68.800 C 219.600 68.097,219.333 68.000,217.400 68.000 C 215.711 68.000,215.200 67.861,215.200 67.400 C 215.200 66.872,211.778 66.800,186.800 66.800 C 161.822 66.800,158.400 66.872,158.400 67.400 M200.000 91.000 C 200.000 91.510,201.044 91.600,207.000 91.600 C 213.733 91.600,214.000 91.630,214.000 92.400 C 214.000 93.093,214.267 93.200,216.000 93.200 C 217.511 93.200,218.000 93.347,218.000 93.800 C 218.000 94.219,218.422 94.400,219.400 94.400 C 220.533 94.400,220.800 94.552,220.800 95.200 C 220.800 95.733,221.067 96.000,221.600 96.000 C 222.248 96.000,222.400 96.267,222.400 97.400 C 222.400 98.378,222.581 98.800,223.000 98.800 C 223.330 98.800,223.600 99.070,223.600 99.400 C 223.600 99.733,223.956 100.000,224.400 100.000 C 224.844 100.000,225.200 100.267,225.200 100.600 C 225.200 100.933,224.844 101.200,224.400 101.200 C 223.867 101.200,223.600 101.467,223.600 102.000 C 223.600 102.444,223.333 102.800,223.000 102.800 C 222.670 102.800,222.400 103.070,222.400 103.400 C 222.400 103.819,221.978 104.000,221.000 104.000 C 219.867 104.000,219.600 104.152,219.600 104.800 C 219.600 105.333,219.333 105.600,218.800 105.600 C 218.356 105.600,218.000 105.867,218.000 106.200 C 218.000 106.619,217.578 106.800,216.600 106.800 C 215.467 106.800,215.200 106.952,215.200 107.600 C 215.200 108.248,214.933 108.400,213.800 108.400 C 212.822 108.400,212.400 108.581,212.400 109.000 C 212.400 109.508,211.444 109.600,206.200 109.600 C 200.267 109.600,200.000 109.634,200.000 110.400 C 200.000 111.188,199.733 111.200,182.600 111.200 C 165.467 111.200,165.200 111.188,165.200 110.400 C 165.200 109.752,164.933 109.600,163.800 109.600 C 162.822 109.600,162.400 109.419,162.400 109.000 C 162.400 108.670,162.130 108.400,161.800 108.400 C 161.467 108.400,161.200 108.044,161.200 107.600 C 161.200 106.952,160.933 106.800,159.800 106.800 C 158.822 106.800,158.400 106.619,158.400 106.200 C 158.400 105.867,158.044 105.600,157.600 105.600 C 157.067 105.600,156.800 105.333,156.800 104.800 C 156.800 104.356,156.533 104.000,156.200 104.000 C 155.870 104.000,155.600 103.730,155.600 103.400 C 155.600 103.067,155.244 102.800,154.800 102.800 C 154.267 102.800,154.000 102.533,154.000 102.000 C 154.000 101.556,153.733 101.200,153.400 101.200 C 153.070 101.200,152.800 100.930,152.800 100.600 C 152.800 100.270,153.070 100.000,153.400 100.000 C 153.730 100.000,154.000 99.730,154.000 99.400 C 154.000 99.067,154.356 98.800,154.800 98.800 C 155.333 98.800,155.600 98.533,155.600 98.000 C 155.600 97.556,155.867 97.200,156.200 97.200 C 156.530 97.200,156.800 96.930,156.800 96.600 C 156.800 96.267,157.156 96.000,157.600 96.000 C 158.133 96.000,158.400 95.733,158.400 95.200 C 158.400 94.756,158.667 94.400,159.000 94.400 C 159.330 94.400,159.600 94.130,159.600 93.800 C 159.600 93.381,160.022 93.200,161.000 93.200 C 162.133 93.200,162.400 93.048,162.400 92.400 C 162.400 91.752,162.667 91.600,163.800 91.600 C 164.778 91.600,165.200 91.419,165.200 91.000 C 165.200 90.476,167.400 90.400,182.600 90.400 C 197.800 90.400,200.000 90.476,200.000 91.000 M98.800 156.200 C 98.800 156.619,98.378 156.800,97.400 156.800 C 96.267 156.800,96.000 156.952,96.000 157.600 C 96.000 158.133,95.733 158.400,95.200 158.400 C 94.756 158.400,94.400 158.667,94.400 159.000 C 94.400 159.330,94.130 159.600,93.800 159.600 C 93.467 159.600,93.200 159.956,93.200 160.400 C 93.200 160.933,92.933 161.200,92.400 161.200 C 91.956 161.200,91.600 161.467,91.600 161.800 C 91.600 162.130,91.330 162.400,91.000 162.400 C 90.667 162.400,90.400 162.756,90.400 163.200 C 90.400 163.733,90.133 164.000,89.600 164.000 C 89.156 164.000,88.800 164.267,88.800 164.600 C 88.800 164.930,88.530 165.200,88.200 165.200 C 87.705 165.200,87.600 165.933,87.600 169.400 C 87.600 172.867,87.705 173.600,88.200 173.600 C 88.695 173.600,88.800 174.333,88.800 177.800 C 88.800 181.733,88.851 182.000,89.600 182.000 C 90.337 182.000,90.400 182.267,90.400 185.400 C 90.400 188.156,90.514 188.800,91.000 188.800 C 91.531 188.800,91.600 196.622,91.600 256.800 C 91.600 316.978,91.531 324.800,91.000 324.800 C 90.482 324.800,90.400 326.222,90.400 335.200 C 90.400 344.178,90.482 345.600,91.000 345.600 C 91.419 345.600,91.600 346.022,91.600 347.000 C 91.600 348.133,91.752 348.400,92.400 348.400 C 92.933 348.400,93.200 348.667,93.200 349.200 C 93.200 349.644,93.467 350.000,93.800 350.000 C 94.130 350.000,94.400 350.270,94.400 350.600 C 94.400 350.933,94.756 351.200,95.200 351.200 C 95.733 351.200,96.000 351.467,96.000 352.000 C 96.000 352.648,96.267 352.800,97.400 352.800 C 98.378 352.800,98.800 352.981,98.800 353.400 C 98.800 353.730,99.070 354.000,99.400 354.000 C 99.733 354.000,100.000 354.356,100.000 354.800 C 100.000 355.570,100.267 355.600,107.000 355.600 C 112.956 355.600,114.000 355.690,114.000 356.200 C 114.000 356.731,122.356 356.800,186.800 356.800 C 251.244 356.800,259.600 356.731,259.600 356.200 C 259.600 355.739,260.111 355.600,261.800 355.600 C 263.733 355.600,264.000 355.503,264.000 354.800 C 264.000 354.107,264.267 354.000,266.000 354.000 C 267.511 354.000,268.000 353.853,268.000 353.400 C 268.000 352.981,268.422 352.800,269.400 352.800 C 270.533 352.800,270.800 352.648,270.800 352.000 C 270.800 351.352,271.067 351.200,272.200 351.200 C 273.178 351.200,273.600 351.019,273.600 350.600 C 273.600 350.267,273.956 350.000,274.400 350.000 C 274.933 350.000,275.200 349.733,275.200 349.200 C 275.200 348.578,275.467 348.400,276.400 348.400 C 277.200 348.400,277.600 348.200,277.600 347.800 C 277.600 347.467,277.956 347.200,278.400 347.200 C 278.933 347.200,279.200 346.933,279.200 346.400 C 279.200 345.956,279.467 345.600,279.800 345.600 C 280.200 345.600,280.400 345.200,280.400 344.400 C 280.400 343.467,280.578 343.200,281.200 343.200 C 281.903 343.200,282.000 342.933,282.000 341.000 C 282.000 339.311,282.139 338.800,282.600 338.800 C 283.076 338.800,283.200 338.222,283.200 336.000 C 283.200 333.467,283.276 333.200,284.000 333.200 C 284.724 333.200,284.800 332.933,284.800 330.400 C 284.800 328.178,284.924 327.600,285.400 327.600 C 285.931 327.600,286.000 318.311,286.000 246.400 C 286.000 174.489,285.931 165.200,285.400 165.200 C 285.070 165.200,284.800 164.930,284.800 164.600 C 284.800 164.267,284.444 164.000,284.000 164.000 C 283.467 164.000,283.200 163.733,283.200 163.200 C 283.200 162.756,282.933 162.400,282.600 162.400 C 282.270 162.400,282.000 162.130,282.000 161.800 C 282.000 161.467,281.644 161.200,281.200 161.200 C 280.667 161.200,280.400 160.933,280.400 160.400 C 280.400 159.752,280.133 159.600,279.000 159.600 C 278.022 159.600,277.600 159.419,277.600 159.000 C 277.600 158.514,276.956 158.400,274.200 158.400 C 271.067 158.400,270.800 158.337,270.800 157.600 C 270.800 156.844,270.533 156.800,266.000 156.800 C 262.000 156.800,261.200 156.700,261.200 156.200 C 261.200 155.669,251.911 155.600,180.000 155.600 C 108.089 155.600,98.800 155.669,98.800 156.200 M123.600 181.200 C 123.600 181.848,123.867 182.000,125.000 182.000 C 125.978 182.000,126.400 182.181,126.400 182.600 C 126.400 183.019,126.822 183.200,127.800 183.200 C 128.933 183.200,129.200 183.352,129.200 184.000 C 129.200 184.444,129.467 184.800,129.800 184.800 C 130.130 184.800,130.400 185.070,130.400 185.400 C 130.400 185.819,130.822 186.000,131.800 186.000 C 132.933 186.000,133.200 186.152,133.200 186.800 C 133.200 187.333,133.467 187.600,134.000 187.600 C 134.444 187.600,134.800 187.867,134.800 188.200 C 134.800 188.530,135.070 188.800,135.400 188.800 C 135.931 188.800,136.000 196.556,136.000 256.200 C 136.000 315.844,135.931 323.600,135.400 323.600 C 135.070 323.600,134.800 323.870,134.800 324.200 C 134.800 324.533,134.444 324.800,134.000 324.800 C 133.467 324.800,133.200 325.067,133.200 325.600 C 133.200 326.248,132.933 326.400,131.800 326.400 C 130.822 326.400,130.400 326.581,130.400 327.000 C 130.400 327.330,130.130 327.600,129.800 327.600 C 129.467 327.600,129.200 327.956,129.200 328.400 C 129.200 329.048,128.933 329.200,127.800 329.200 C 126.822 329.200,126.400 329.381,126.400 329.800 C 126.400 330.219,125.978 330.400,125.000 330.400 C 123.867 330.400,123.600 330.552,123.600 331.200 C 123.600 331.848,123.333 332.000,122.200 332.000 C 121.067 332.000,120.800 331.848,120.800 331.200 C 120.800 330.552,120.533 330.400,119.400 330.400 C 118.422 330.400,118.000 330.219,118.000 329.800 C 118.000 329.381,117.578 329.200,116.600 329.200 C 115.467 329.200,115.200 329.048,115.200 328.400 C 115.200 327.956,114.933 327.600,114.600 327.600 C 114.270 327.600,114.000 327.330,114.000 327.000 C 114.000 326.667,113.644 326.400,113.200 326.400 C 112.667 326.400,112.400 326.133,112.400 325.600 C 112.400 325.156,112.133 324.800,111.800 324.800 C 111.470 324.800,111.200 324.530,111.200 324.200 C 111.200 323.867,110.844 323.600,110.400 323.600 C 109.603 323.600,109.600 323.333,109.600 256.200 C 109.600 189.067,109.603 188.800,110.400 188.800 C 110.844 188.800,111.200 188.533,111.200 188.200 C 111.200 187.870,111.470 187.600,111.800 187.600 C 112.133 187.600,112.400 187.244,112.400 186.800 C 112.400 186.152,112.667 186.000,113.800 186.000 C 114.778 186.000,115.200 185.819,115.200 185.400 C 115.200 185.067,115.556 184.800,116.000 184.800 C 116.533 184.800,116.800 184.533,116.800 184.000 C 116.800 183.352,117.067 183.200,118.200 183.200 C 119.178 183.200,119.600 183.019,119.600 182.600 C 119.600 182.181,120.022 182.000,121.000 182.000 C 122.133 182.000,122.400 181.848,122.400 181.200 C 122.400 180.756,122.667 180.400,123.000 180.400 C 123.333 180.400,123.600 180.756,123.600 181.200 M168.000 181.200 C 168.000 181.848,168.267 182.000,169.400 182.000 C 170.378 182.000,170.800 182.181,170.800 182.600 C 170.800 183.019,171.222 183.200,172.200 183.200 C 173.333 183.200,173.600 183.352,173.600 184.000 C 173.600 184.533,173.867 184.800,174.400 184.800 C 174.844 184.800,175.200 185.067,175.200 185.400 C 175.200 185.800,175.600 186.000,176.400 186.000 C 177.333 186.000,177.600 186.178,177.600 186.800 C 177.600 187.333,177.867 187.600,178.400 187.600 C 178.844 187.600,179.200 187.867,179.200 188.200 C 179.200 188.530,179.470 188.800,179.800 188.800 C 180.331 188.800,180.400 196.556,180.400 256.200 C 180.400 315.844,180.331 323.600,179.800 323.600 C 179.470 323.600,179.200 323.870,179.200 324.200 C 179.200 324.533,178.844 324.800,178.400 324.800 C 177.867 324.800,177.600 325.067,177.600 325.600 C 177.600 326.222,177.333 326.400,176.400 326.400 C 175.600 326.400,175.200 326.600,175.200 327.000 C 175.200 327.333,174.844 327.600,174.400 327.600 C 173.867 327.600,173.600 327.867,173.600 328.400 C 173.600 329.048,173.333 329.200,172.200 329.200 C 171.222 329.200,170.800 329.381,170.800 329.800 C 170.800 330.219,170.378 330.400,169.400 330.400 C 168.267 330.400,168.000 330.552,168.000 331.200 C 168.000 331.644,167.733 332.000,167.400 332.000 C 167.067 332.000,166.800 331.644,166.800 331.200 C 166.800 330.552,166.533 330.400,165.400 330.400 C 164.422 330.400,164.000 330.219,164.000 329.800 C 164.000 329.381,163.578 329.200,162.600 329.200 C 161.467 329.200,161.200 329.048,161.200 328.400 C 161.200 327.867,160.933 327.600,160.400 327.600 C 159.956 327.600,159.600 327.333,159.600 327.000 C 159.600 326.581,159.178 326.400,158.200 326.400 C 157.067 326.400,156.800 326.248,156.800 325.600 C 156.800 325.156,156.533 324.800,156.200 324.800 C 155.870 324.800,155.600 324.530,155.600 324.200 C 155.600 323.867,155.244 323.600,154.800 323.600 C 154.003 323.600,154.000 323.333,154.000 256.200 C 154.000 189.067,154.003 188.800,154.800 188.800 C 155.244 188.800,155.600 188.533,155.600 188.200 C 155.600 187.870,155.870 187.600,156.200 187.600 C 156.533 187.600,156.800 187.244,156.800 186.800 C 156.800 186.152,157.067 186.000,158.200 186.000 C 159.178 186.000,159.600 185.819,159.600 185.400 C 159.600 185.067,159.956 184.800,160.400 184.800 C 160.933 184.800,161.200 184.533,161.200 184.000 C 161.200 183.352,161.467 183.200,162.600 183.200 C 163.578 183.200,164.000 183.019,164.000 182.600 C 164.000 182.181,164.422 182.000,165.400 182.000 C 166.533 182.000,166.800 181.848,166.800 181.200 C 166.800 180.756,167.067 180.400,167.400 180.400 C 167.733 180.400,168.000 180.756,168.000 181.200 M212.400 181.200 C 212.400 181.848,212.667 182.000,213.800 182.000 C 214.778 182.000,215.200 182.181,215.200 182.600 C 215.200 183.019,215.622 183.200,216.600 183.200 C 217.733 183.200,218.000 183.352,218.000 184.000 C 218.000 184.533,218.267 184.800,218.800 184.800 C 219.244 184.800,219.600 185.067,219.600 185.400 C 219.600 185.819,220.022 186.000,221.000 186.000 C 222.133 186.000,222.400 186.152,222.400 186.800 C 222.400 187.244,222.667 187.600,223.000 187.600 C 223.330 187.600,223.600 187.870,223.600 188.200 C 223.600 188.533,223.956 188.800,224.400 188.800 C 225.197 188.800,225.200 189.067,225.200 256.200 C 225.200 323.333,225.197 323.600,224.400 323.600 C 223.956 323.600,223.600 323.867,223.600 324.200 C 223.600 324.530,223.330 324.800,223.000 324.800 C 222.667 324.800,222.400 325.156,222.400 325.600 C 222.400 326.248,222.133 326.400,221.000 326.400 C 220.022 326.400,219.600 326.581,219.600 327.000 C 219.600 327.333,219.244 327.600,218.800 327.600 C 218.267 327.600,218.000 327.867,218.000 328.400 C 218.000 329.048,217.733 329.200,216.600 329.200 C 215.622 329.200,215.200 329.381,215.200 329.800 C 215.200 330.219,214.778 330.400,213.800 330.400 C 212.667 330.400,212.400 330.552,212.400 331.200 C 212.400 331.644,212.133 332.000,211.800 332.000 C 211.467 332.000,211.200 331.644,211.200 331.200 C 211.200 330.552,210.933 330.400,209.800 330.400 C 208.822 330.400,208.400 330.219,208.400 329.800 C 208.400 329.381,207.978 329.200,207.000 329.200 C 205.867 329.200,205.600 329.048,205.600 328.400 C 205.600 327.867,205.333 327.600,204.800 327.600 C 204.356 327.600,204.000 327.333,204.000 327.000 C 204.000 326.600,203.600 326.400,202.800 326.400 C 201.867 326.400,201.600 326.222,201.600 325.600 C 201.600 325.067,201.333 324.800,200.800 324.800 C 200.356 324.800,200.000 324.533,200.000 324.200 C 200.000 323.870,199.730 323.600,199.400 323.600 C 198.869 323.600,198.800 315.844,198.800 256.200 C 198.800 196.556,198.869 188.800,199.400 188.800 C 199.730 188.800,200.000 188.530,200.000 188.200 C 200.000 187.867,200.356 187.600,200.800 187.600 C 201.333 187.600,201.600 187.333,201.600 186.800 C 201.600 186.178,201.867 186.000,202.800 186.000 C 203.600 186.000,204.000 185.800,204.000 185.400 C 204.000 185.067,204.356 184.800,204.800 184.800 C 205.333 184.800,205.600 184.533,205.600 184.000 C 205.600 183.352,205.867 183.200,207.000 183.200 C 207.978 183.200,208.400 183.019,208.400 182.600 C 208.400 182.181,208.822 182.000,209.800 182.000 C 210.933 182.000,211.200 181.848,211.200 181.200 C 211.200 180.756,211.467 180.400,211.800 180.400 C 212.133 180.400,212.400 180.756,212.400 181.200 M258.400 181.200 C 258.400 181.848,258.667 182.000,259.800 182.000 C 260.778 182.000,261.200 182.181,261.200 182.600 C 261.200 183.019,261.622 183.200,262.600 183.200 C 263.733 183.200,264.000 183.352,264.000 184.000 C 264.000 184.444,264.267 184.800,264.600 184.800 C 264.930 184.800,265.200 185.070,265.200 185.400 C 265.200 185.733,265.556 186.000,266.000 186.000 C 266.533 186.000,266.800 186.267,266.800 186.800 C 266.800 187.244,267.067 187.600,267.400 187.600 C 267.730 187.600,268.000 187.870,268.000 188.200 C 268.000 188.533,268.356 188.800,268.800 188.800 C 269.597 188.800,269.600 189.067,269.600 256.200 C 269.600 323.333,269.597 323.600,268.800 323.600 C 268.356 323.600,268.000 323.867,268.000 324.200 C 268.000 324.530,267.730 324.800,267.400 324.800 C 266.981 324.800,266.800 325.222,266.800 326.200 C 266.800 327.333,266.648 327.600,266.000 327.600 C 265.467 327.600,265.200 327.867,265.200 328.400 C 265.200 329.048,264.933 329.200,263.800 329.200 C 262.822 329.200,262.400 329.381,262.400 329.800 C 262.400 330.253,261.911 330.400,260.400 330.400 C 258.667 330.400,258.400 330.507,258.400 331.200 C 258.400 331.848,258.133 332.000,257.000 332.000 C 255.867 332.000,255.600 331.848,255.600 331.200 C 255.600 330.552,255.333 330.400,254.200 330.400 C 253.222 330.400,252.800 330.219,252.800 329.800 C 252.800 329.381,252.378 329.200,251.400 329.200 C 250.267 329.200,250.000 329.048,250.000 328.400 C 250.000 327.956,249.733 327.600,249.400 327.600 C 249.070 327.600,248.800 327.330,248.800 327.000 C 248.800 326.581,248.378 326.400,247.400 326.400 C 246.267 326.400,246.000 326.248,246.000 325.600 C 246.000 325.067,245.733 324.800,245.200 324.800 C 244.756 324.800,244.400 324.533,244.400 324.200 C 244.400 323.870,244.130 323.600,243.800 323.600 C 243.269 323.600,243.200 315.844,243.200 256.200 C 243.200 196.556,243.269 188.800,243.800 188.800 C 244.130 188.800,244.400 188.530,244.400 188.200 C 244.400 187.867,244.756 187.600,245.200 187.600 C 245.733 187.600,246.000 187.333,246.000 186.800 C 246.000 186.152,246.267 186.000,247.400 186.000 C 248.378 186.000,248.800 185.819,248.800 185.400 C 248.800 185.070,249.070 184.800,249.400 184.800 C 249.733 184.800,250.000 184.444,250.000 184.000 C 250.000 183.352,250.267 183.200,251.400 183.200 C 252.378 183.200,252.800 183.019,252.800 182.600 C 252.800 182.181,253.222 182.000,254.200 182.000 C 255.333 182.000,255.600 181.848,255.600 181.200 C 255.600 180.552,255.867 180.400,257.000 180.400 C 258.133 180.400,258.400 180.552,258.400 181.200 " stroke="none" fill="#fc0b55" fill-rule="evenodd"></path><path id="path2" d="" stroke="none" fill="#fcbc100" fill-rule="evenodd"></path><path id="path3" d="" stroke="none" fill="#fcbc100" fill-rule="evenodd"></path><path id="path4" d="" stroke="none" fill="#fcbc100" fill-rule="evenodd"></path></g></svg>