<svg xmlns="http://www.w3.org/2000/svg" viewBox="0 0 56.5 56.5"><defs><style>.cls-1{fill:none;stroke:#002e3b;stroke-miterlimit:10;stroke-width:1.5px;}.cls-2{fill:#002e3b;}</style></defs><title>bid 2</title><g id="Layer_2" data-name="Layer 2"><g id="Layer_1-2" data-name="Layer 1"><circle class="cls-1" cx="28.25" cy="28.25" r="27.5"/><path class="cls-2" d="M7.87,39.86a1.42,1.42,0,0,0,.42,1l2.8,2.8a1.43,1.43,0,0,0,2,0l7.94-7.94A1.43,1.43,0,0,0,21.27,34l8.16-8.16,2.83,2.83-.23.23A1.47,1.47,0,0,0,32,31h0l1,1a1.47,1.47,0,0,0,2.08,0l8-8a1.47,1.47,0,0,0,0-2.08l-1-1a1.47,1.47,0,0,0-2.08,0l-.23.23-9-9,.23-.23a1.47,1.47,0,0,0,0-2.08l-1-1a1.47,1.47,0,0,0-2.08,0l-8,8a1.47,1.47,0,0,0,0,2.08l1,1a1.47,1.47,0,0,0,2.08,0l.23-.23,2.83,2.83-1.09,1.09a.59.59,0,0,0,.84.83L27,23.36,28.61,25l-8.14,8.12-1.63-1.63,4.43-4.43a.59.59,0,0,0-.83-.83L18,30.69a1.43,1.43,0,0,0-1.75.21L8.29,38.84A1.42,1.42,0,0,0,7.87,39.86Zm22.48-29a.31.31,0,0,1-.09.21l-8,8a.31.31,0,0,1-.43,0l-1-1a.31.31,0,0,1,0-.43l8-8a.31.31,0,0,1,.43,0l1,1A.31.31,0,0,1,30.35,10.89ZM32.86,29.7l8-8a.31.31,0,0,1,.43,0l1,1a.31.31,0,0,1,0,.43l-8,8a.31.31,0,0,1-.43,0l-1-1a.31.31,0,0,1,0-.43Zm-5.48-7.58h0l-3.24-3.24L30,13l9,9-5.9,5.9-3.24-3.24h0ZM9,39.86a.26.26,0,0,1,.08-.19l7.94-7.94a.26.26,0,0,1,.37,0h0l2.63,2.63h0l.17.17a.26.26,0,0,1,0,.37h0l-7.94,7.95a.26.26,0,0,1-.37,0h0l-2.8-2.8A.26.26,0,0,1,9,39.86Z"/><path class="cls-2" d="M21.7,42.92v1.67a1,1,0,0,0,1,1H45.5a1,1,0,0,0,1-1V42.92a2.54,2.54,0,0,0-2.54-2.54H43V37.3a1.24,1.24,0,0,0-1.24-1.24H40.17a.59.59,0,1,0-.09,1.17H41.8a.08.08,0,0,1,.08.08V40.4H26.32V37.3a.08.08,0,0,1,.08-.08H36.49a.59.59,0,0,0,0-1.17H26.39a1.24,1.24,0,0,0-1.24,1.24v3.09h-.9A2.54,2.54,0,0,0,21.7,42.9Zm1.17,1.48V42.92a1.37,1.37,0,0,1,1.37-1.37H43.94a1.37,1.37,0,0,1,1.37,1.37V44.4Z"/></g></g></svg>