<svg xmlns="http://www.w3.org/2000/svg" viewBox="0 0 55 55"><defs><style>.cls-1{fill:#002e3b;}.cls-2{fill:#fff;}</style></defs><title>bid 1</title><g id="Layer_2" data-name="Layer 2"><g id="Layer_1-2" data-name="Layer 1"><circle class="cls-1" cx="27.5" cy="27.5" r="27.5"/><path class="cls-2" d="M7.12,39.11a1.42,1.42,0,0,0,.42,1l2.8,2.8a1.43,1.43,0,0,0,2,0L20.31,35a1.43,1.43,0,0,0,.21-1.75l8.16-8.16,2.83,2.83-.23.23a1.47,1.47,0,0,0,0,2.08h0l1,1a1.47,1.47,0,0,0,2.08,0l8-8a1.47,1.47,0,0,0,0-2.08l-1-1a1.47,1.47,0,0,0-2.08,0l-.23.23-9-9,.23-.23a1.47,1.47,0,0,0,0-2.08l-1-1A1.47,1.47,0,0,0,27.2,8l-8,8a1.47,1.47,0,0,0,0,2.08l1,1a1.47,1.47,0,0,0,2.08,0l.23-.23,2.83,2.83L24.3,22.87a.59.59,0,0,0,.84.83l1.09-1.09,1.63,1.63-8.14,8.12-1.63-1.63,4.43-4.43a.59.59,0,0,0-.83-.83l-4.46,4.46a1.43,1.43,0,0,0-1.75.21L7.54,38.09A1.42,1.42,0,0,0,7.12,39.11Zm22.48-29a.31.31,0,0,1-.09.21l-8,8a.31.31,0,0,1-.43,0l-1-1a.31.31,0,0,1,0-.43l8-8a.31.31,0,0,1,.43,0l1,1A.31.31,0,0,1,29.6,10.14ZM32.11,29l8-8a.31.31,0,0,1,.43,0l1,1a.31.31,0,0,1,0,.43l-8,8a.31.31,0,0,1-.43,0l-1-1a.31.31,0,0,1,0-.43Zm-5.48-7.58h0l-3.24-3.24,5.9-5.9,9,9-5.9,5.9L29.1,23.84h0ZM8.29,39.11a.26.26,0,0,1,.08-.19L16.31,31a.26.26,0,0,1,.37,0h0l2.63,2.63h0l.17.17a.26.26,0,0,1,0,.37h0L11.54,42.1a.26.26,0,0,1-.37,0h0l-2.8-2.8A.26.26,0,0,1,8.29,39.11Z"/><path class="cls-2" d="M21,42.17v1.67a1,1,0,0,0,1,1H44.75a1,1,0,0,0,1-1V42.17a2.54,2.54,0,0,0-2.54-2.54h-.9V36.55a1.24,1.24,0,0,0-1.24-1.24H39.42a.59.59,0,1,0-.09,1.17h1.72a.08.08,0,0,1,.08.08v3.09H25.57v-3.1a.08.08,0,0,1,.08-.08H35.74a.59.59,0,0,0,0-1.17H25.64a1.24,1.24,0,0,0-1.24,1.24v3.09h-.9A2.54,2.54,0,0,0,21,42.15Zm1.17,1.48V42.17a1.37,1.37,0,0,1,1.37-1.37H43.19a1.37,1.37,0,0,1,1.37,1.37v1.48Z"/></g></g></svg>