<svg xmlns="http://www.w3.org/2000/svg" viewBox="0 0 30.55 35.2"><defs><style>.cls-1{fill:#002e3b;}.cls-2{fill:#4db6ac;}.cls-3{fill:#9e2323;}</style></defs><title>delete</title><g id="Layer_2" data-name="Layer 2"><g id="Layer_1-2" data-name="Layer 1"><path class="cls-1" d="M18.22,4.14a1,1,0,0,1-1-1V2H9.54V3.13a1,1,0,1,1-2,0V1a1,1,0,0,1,1-1h9.7a1,1,0,0,1,1,1V3.13A1,1,0,0,1,18.22,4.14Z"/><path class="cls-1" d="M18.14,33.23H4.89a1,1,0,0,1-1-.92l-2-21.21A1,1,0,0,1,2.77,10H23.88a1,1,0,1,1,0,2H4L5.81,31.21H18.14a1,1,0,1,1,0,2Z"/><path class="cls-1" d="M8.56,29.19a1,1,0,0,1-1-.92l-1-10.46a1,1,0,1,1,2-.19l1,10.46a1,1,0,0,1-.91,1.1h-.1Z"/><path class="cls-1" d="M18.78,23.27h-.1a1,1,0,0,1-.91-1.1h0l.45-4.54a1,1,0,0,1,2,.2l-.45,4.55a1,1,0,0,1-1,.91Z"/><path class="cls-1" d="M22.95,21.87h-.09a1,1,0,0,1-1-1h0a1,1,0,0,1,.12-.47l.27-2.77a1,1,0,1,1,2,.19L23.95,21A1,1,0,0,1,22.95,21.87Z"/><rect class="cls-2" x="1.01" y="6.97" width="24.73" height="5.49"/><path class="cls-1" d="M25.74,13.47H1a1,1,0,0,1-1-1H0V7A1,1,0,0,1,1,6H25.74a1,1,0,0,1,1,1v5.49A1,1,0,0,1,25.74,13.47ZM2,11.45H24.73V8H2Z"/><path class="cls-1" d="M13.37,29.19a1,1,0,0,1-1-1h0V17.6a1,1,0,0,1,2,0V28.18a1,1,0,0,1-1,1h0Z"/><path class="cls-3" d="M22.87,35.2a7.68,7.68,0,1,1,7.68-7.68,7.68,7.68,0,0,1-7.68,7.68Zm0-13.33a5.66,5.66,0,1,0,5.66,5.66A5.66,5.66,0,0,0,22.87,21.87Z"/><path class="cls-3" d="M25.46,31.12a1,1,0,0,1-.71-.3l-5.17-5.17A1,1,0,1,1,21,24.22l5.17,5.17a1,1,0,0,1-.71,1.72Z"/><path class="cls-3" d="M20.28,31.12a1,1,0,0,1-.71-1.72l5.17-5.17a1,1,0,0,1,1.43,1.43L21,30.83a1,1,0,0,1-.71.3Z"/></g></g></svg>