<svg xmlns="http://www.w3.org/2000/svg" viewBox="0 0 55 55"><defs><style>.cls-1{fill:#002e3b;}.cls-2{fill:#fff;}</style></defs><title>download_1</title><g id="Layer_2" data-name="Layer 2"><g id="Layer_1-2" data-name="Layer 1"><circle class="cls-1" cx="27.5" cy="27.5" r="27.5"/><path class="cls-2" d="M44.51,33.38a.91.91,0,0,0-.91.91v3.49a3.65,3.65,0,0,1-3.65,3.65H15.05a3.65,3.65,0,0,1-3.65-3.65V34.29a.91.91,0,1,0-1.83,0v3.49a5.48,5.48,0,0,0,5.48,5.48h24.9a5.48,5.48,0,0,0,5.48-5.48V34.29A.91.91,0,0,0,44.51,33.38Z"/><path class="cls-2" d="M16,38.8H39A.91.91,0,0,0,39,37H16a.91.91,0,0,0,0,1.83Z"/><path class="cls-2" d="M18.34,25.42,26,32.25a2.28,2.28,0,0,0,3,0l7.64-6.83a.91.91,0,0,0-1.22-1.36l-7,6.29V12.66a.91.91,0,1,0-1.83,0V30.35l-7-6.29a.91.91,0,0,0-1.22,1.36Z"/></g></g></svg>