<svg xmlns="http://www.w3.org/2000/svg" viewBox="0 0 56.5 56.5"><defs><style>.cls-1{fill:none;stroke:#002e3b;stroke-miterlimit:10;stroke-width:1.5px;}.cls-2{fill:#002e3b;}</style></defs><title>download_2</title><g id="Layer_2" data-name="Layer 2"><g id="Layer_1-2" data-name="Layer 1"><circle class="cls-1" cx="28.25" cy="28.25" r="27.5"/><path class="cls-2" d="M45.26,34.13a.91.91,0,0,0-.91.91v3.49a3.65,3.65,0,0,1-3.65,3.65H15.8a3.65,3.65,0,0,1-3.65-3.65V35a.91.91,0,0,0-1.83,0v3.49A5.48,5.48,0,0,0,15.8,44H40.7a5.48,5.48,0,0,0,5.48-5.48V35A.91.91,0,0,0,45.26,34.13Z"/><path class="cls-2" d="M16.78,39.55H39.72a.91.91,0,0,0,0-1.83H16.78a.91.91,0,0,0,0,1.83Z"/><path class="cls-2" d="M19.09,26.17,26.73,33a2.28,2.28,0,0,0,3,0l7.64-6.83a.91.91,0,0,0-1.22-1.36l-7,6.29V13.41a.91.91,0,1,0-1.83,0V31.1l-7-6.29a.91.91,0,0,0-1.22,1.36Z"/></g></g></svg>