<svg xmlns="http://www.w3.org/2000/svg" xmlns:xlink="http://www.w3.org/1999/xlink" viewBox="0 0 26.37 31.82"><defs><style>.cls-1{fill:none;}.cls-2{clip-path:url(#clip-path);}.cls-3{fill:#002e3b;}.cls-4{fill:#4db6ac;}</style><clipPath id="clip-path" transform="translate(-4.22 -1.21)"><rect class="cls-1" x="-2.76" y="12.56" width="37.32" height="11.28" transform="translate(-8.23 19.6) rotate(-52.18)"/></clipPath></defs><title>edit</title><g id="Layer_2" data-name="Layer 2"><g id="Layer_1-2" data-name="Layer 1"><g class="cls-2"><path class="cls-3" d="M4.45,23.75a.75.75,0,0,0-.16.45l-.07,8.07a.76.76,0,0,0,.95.74L13,30.94a.75.75,0,0,0,.4-.27L26,14.4a.75.75,0,0,0-1.19-.92L12.33,29.55,5.74,31.3l.05-6.83,12.45-16a.75.75,0,1,0-1.19-.92Zm0,0" transform="translate(-4.22 -1.21)"/><path class="cls-3" d="M20.92,10.5,9.32,25.45a.75.75,0,0,0,1.19.92l11.6-14.95a.75.75,0,1,0-1.19-.92Zm0,0" transform="translate(-4.22 -1.21)"/><polygon class="cls-4" points="15.5 3.81 18.53 1 20.58 1.54 24.47 4.56 25.33 6.29 24.25 8.34 22.85 10.07 15.5 3.81"/><path class="cls-3" d="M21.06,2.35,19,5a.75.75,0,0,0,.13,1.06l7.73,6a.75.75,0,0,0,1.06-.13L30,9.27a3,3,0,0,0-.52-4.15L25.2,1.83a3,3,0,0,0-4.15.52Zm7.73,6-1.6,2.06L20.64,5.34l1.6-2.06a1.46,1.46,0,0,1,2-.26l4.24,3.29a1.45,1.45,0,0,1,.26,2Zm0,0" transform="translate(-4.22 -1.21)"/></g></g></g></svg>