<svg xmlns="http://www.w3.org/2000/svg" viewBox="0 0 45.13 25.58"><defs><style>.cls-1{fill:#002e3b;}.cls-2{fill:#4db6ac;}</style></defs><title>view</title><g id="Layer_2" data-name="Layer 2"><g id="Layer_1-2" data-name="Layer 1"><path class="cls-1" d="M44.39,10.66A27.93,27.93,0,0,0,34.91,2.9,27.37,27.37,0,0,0,22.91,0h-.7a27.37,27.37,0,0,0-12,2.89A27.93,27.93,0,0,0,.73,10.66a3.45,3.45,0,0,0,0,4.25,27.93,27.93,0,0,0,9.49,7.77,27.37,27.37,0,0,0,12,2.89h.7a27.37,27.37,0,0,0,12-2.89,27.93,27.93,0,0,0,9.49-7.77A3.45,3.45,0,0,0,44.39,10.66ZM22.56,23.74a11,11,0,1,1,11-11A11,11,0,0,1,22.56,23.74ZM11,21a26.09,26.09,0,0,1-8.86-7.25,1.62,1.62,0,0,1,0-2A25.89,25.89,0,0,1,14,3.28a12.77,12.77,0,0,0,0,19A25.87,25.87,0,0,1,11,21Zm31.91-7.25A26.08,26.08,0,0,1,34.09,21a25.86,25.86,0,0,1-3,1.26,12.77,12.77,0,0,0,0-19,25.91,25.91,0,0,1,11.84,8.52A1.62,1.62,0,0,1,42.95,13.78Z"/><circle class="cls-2" cx="22.35" cy="13.2" r="3.5"/><path class="cls-1" d="M22.56,8.1a4.69,4.69,0,1,0,4.69,4.69A4.69,4.69,0,0,0,22.56,8.1Zm0,7.54a2.85,2.85,0,1,1,2.85-2.85A2.86,2.86,0,0,1,22.56,15.64Z"/></g></g></svg>